<?xml version="1.0" encoding="utf-8"?>
<!-- Generator: Adobe Illustrator 25.2.0, SVG Export Plug-In . SVG Version: 6.00 Build 0)  -->
<svg version="1.1" id="Layer_1" xmlns="http://www.w3.org/2000/svg" xmlns:xlink="http://www.w3.org/1999/xlink" x="0px" y="0px"
	 viewBox="0 0 24 24" style="enable-background:new 0 0 24 24;" xml:space="preserve">
<style type="text/css">
	.st0{fill:#47C8F5;}
	.st1{fill:#FFFFFF;}
	.st2{opacity:1.000000e-02;fill:#FFFFFF;enable-background:new    ;}
</style>
<path id="path-2" class="st0" d="M12,23C5.9,23,1,18.1,1,12S5.9,1,12,1s11,4.9,11,11S18.1,23,12,23z"/>
<path id="path-1" class="st1" d="M18.3,8L17,8.4l0.7-0.6C17.9,7.6,18,7.3,18.1,7H18c-0.5,0.3-1,0.5-1.5,0.6h-0.3
	c-0.2-0.2-0.4-0.4-0.7-0.5l-1.1-0.2c-0.4,0-0.8,0.1-1.1,0.3c-0.3,0.2-0.6,0.4-0.9,0.7C12.2,8.2,12,8.6,11.9,9
	c-0.1,0.4-0.1,0.7-0.1,1.1c0.1,0.1,0.1,0.1,0,0.1C9.7,9.9,7.9,8.9,6.5,7.3H6.4c-0.7,1-0.5,2.3,0.4,3.1l0.3,0.3c-0.4,0-0.7-0.1-1-0.3
	H6v0.3c0.2,1,0.8,1.8,1.7,2.3H7c0.3,0.9,1.1,1.5,2.1,1.7h0.3c-0.3,0.4-1.1,0.6-1.5,0.8c-0.7,0.2-1.5,0.3-2.2,0.2H5.6
	c-0.1,0.1,0,0.1,0,0.1l0.5,0.3l1.4,0.6c2.6,0.9,5.5,0.3,7.5-1.5c1.5-1.5,2.3-3.7,2.1-5.8h0.2c0.4-0.3,0.7-0.7,1-1.1L18.3,8L18.3,8
	L18.3,8z"/>
<rect id="mask" class="st2" width="24" height="24"/>
</svg>
