<?xml version="1.0" encoding="utf-8"?>
<!-- Generator: Adobe Illustrator 25.2.0, SVG Export Plug-In . SVG Version: 6.00 Build 0)  -->
<svg version="1.1" id="youtube" xmlns="http://www.w3.org/2000/svg" xmlns:xlink="http://www.w3.org/1999/xlink" x="0px" y="0px"
	 viewBox="0 0 24 24" style="enable-background:new 0 0 24 24;" xml:space="preserve">
<style type="text/css">
	.st0{fill:#ED2224;}
	.st1{fill:#FFFFFF;}
	.st2{opacity:1.000000e-02;fill:#FFFFFF;enable-background:new    ;}
</style>
<path id="youtube-path2" class="st0" d="M12,23C5.9,23,1,18.1,1,12S5.9,1,12,1s11,4.9,11,11S18.1,23,12,23z"/>
<path id="youtube-path1" class="st1" d="M18.6,10.3c-0.1-1.5-1.3-2.7-2.8-2.8H8.4c-1.5,0.1-2.7,1.3-2.8,2.8v3.5
	c0.1,1.5,1.3,2.7,2.8,2.8h7.4c1.5-0.1,2.7-1.3,2.8-2.8L18.6,10.3z M14,12.2l-3,1.6c-0.1,0.1-0.2,0-0.2-0.1v-3.3
	c0-0.2,0.1-0.3,0.2-0.2l3,1.7C14.1,12,14.1,12.2,14,12.2z"/>
<rect id="youtube-mask" class="st2" width="24" height="24"/>
</svg>
