<svg id="Isolation_Mode" data-name="Isolation Mode" xmlns="http://www.w3.org/2000/svg" viewBox="0 0 2910.7 2145.5"><g id="recorder"><rect y="411.2" width="2910.7" height="1734.24" style="fill:#7f888e;stroke:#12232e;stroke-linecap:round;stroke-linejoin:round;stroke-width:9px"/><polygon points="2910.7 411.2 0 411.2 23.2 342.8 2887.4 342.8 2910.7 411.2" style="fill:#a0a7ab;stroke:#12232e;stroke-linecap:round;stroke-linejoin:round;stroke-width:9px"/><rect x="1033.4" y="854.6" width="843.9" height="1244.36" style="fill:none;stroke:#12232e;stroke-linecap:round;stroke-linejoin:round;stroke-width:9px"/><g id="tape"><path d="M1772.4,1941.1h-628a35.6,35.6,0,0,1-35.6-35.6V1538.8a35.6,35.6,0,0,1,35.6-35.6h628a35.6,35.6,0,0,1,35.6,35.6v366.7a35.6,35.6,0,0,1-35.6,35.6" style="fill:#231f20"/><rect x="1344.9" y="1600.4" width="163.4" height="147.54" style="fill:#ffeebf"/><path d="M1724.9,1544.2h-533a23.6,23.6,0,0,1-23.6,23.6v241.4a23.6,23.6,0,0,1,22.8,23.6v.4h533.8a23.6,23.6,0,0,1,23.7-23.6V1567.8a23.6,23.6,0,0,1-23.7-23.6M1635,1682.8a63.7,63.7,0,0,1-63.7,63.7H1345.5a63.7,63.7,0,0,1-63.7-63.7v-.8a63.7,63.7,0,0,1,63.7-63.6h225.8A63.7,63.7,0,0,1,1635,1682v.8" style="fill:#92278f"/><path d="M1732.9,1953.7H1187.5v-36.4a57.3,57.3,0,0,1,57.3-57.3h433a55.2,55.2,0,0,1,55.1,55.2Z" style="fill:#231f20"/><path d="M1754.7,1916.5v-3.6H1161a30.4,30.4,0,0,1-30.4-30.4V1556.4A30.4,30.4,0,0,1,1161,1526h593.7a30.4,30.4,0,0,1,30.3,30.4v326.1a30.4,30.4,0,0,1-30.3,30.4v7.2a37.5,37.5,0,0,0,37.5-37.6V1556.4a37.5,37.5,0,0,0-37.5-37.6H1161a37.6,37.6,0,0,0-37.6,37.6v326.1a37.6,37.6,0,0,0,37.6,37.6h593.7Z" style="fill:#231f20"/><path d="M1180.2,1544.2a10.9,10.9,0,1,1-10.8-10.8A10.8,10.8,0,0,1,1180.2,1544.2Z" style="fill:#fdd8c0"/><path d="M1180.2,1829.2a10.9,10.9,0,1,1-10.8-10.8A10.9,10.9,0,0,1,1180.2,1829.2Z" style="fill:#fdd8c0"/><path d="M1468,1885.1a10.8,10.8,0,1,1-10.8-10.8A10.8,10.8,0,0,1,1468,1885.1Z" style="fill:#fdd8c0"/><path d="M1229.7,1914.6a12.7,12.7,0,1,1-12.7-12.7A12.7,12.7,0,0,1,1229.7,1914.6Z" style="fill:#fdd8c0"/><path d="M1712.1,1916.5a12.7,12.7,0,1,1-12.7-12.7A12.7,12.7,0,0,1,1712.1,1916.5Z" style="fill:#fdd8c0"/><path d="M1756.9,1829.2a10.9,10.9,0,1,1-10.8-10.8A10.9,10.9,0,0,1,1756.9,1829.2Z" style="fill:#fdd8c0"/><path d="M1756.9,1544.2a10.9,10.9,0,1,1-10.8-10.8A10.8,10.8,0,0,1,1756.9,1544.2Z" style="fill:#fdd8c0"/><path d="M1569.8,1758.5v-2.4H1346a73.7,73.7,0,0,1-73.8-73.9v-6.5a66.9,66.9,0,0,1,66.8-66.8h228.5a74.8,74.8,0,0,1,74.7,74.7,72.4,72.4,0,0,1-72.4,72.5v4.8a77.3,77.3,0,0,0,77.2-77.3,79.5,79.5,0,0,0-79.5-79.5H1339a71.7,71.7,0,0,0-71.6,71.6v6.5a78.6,78.6,0,0,0,78.6,78.7h223.8Z" style="fill:#fdd8c0"/><rect x="1242.1" y="1890.7" width="21.9" height="11.26" style="fill:#fdd8c0"/><rect x="1656" y="1890.7" width="21.9" height="11.26" style="fill:#fdd8c0"/><path d="M1731.6,1734.7c5.5-13.5,8.8-28.4,5.5-42.6s-11.7-24.7-18.8-36.5a189,189,0,0,1-22.7-56.1c-3.6-16-5.2-32.8-12.3-47.7a70.7,70.7,0,0,0-4.3-7.6H1319.9c-9.7,19.2-27,31.4-47.6,44.9-16.5,10.9-32.2,23.4-43.6,39.5-27,38.2-25.7,90-14,135.3,5.4,20.9,13,41.7,26.7,58.3a100.3,100.3,0,0,0,10.6,11h376.5l8-4.1c40.3-21.3,77.9-52.2,95.1-94.4m-97.3-51.9a63.7,63.7,0,0,1-63.6,63.7H1344.8a63.7,63.7,0,0,1-63.7-63.7v-.8a63.7,63.7,0,0,1,63.7-63.6h225.9a63.6,63.6,0,0,1,63.6,63.6v.8" style="fill:#92278f"/><polygon points="1702.2 1767.1 1681.4 1767.1 1259.5 1767.1 1227.4 1767.1 1237.3 1778 1227.8 1784.9 1237.3 1794.1 1227.4 1803.6 1227.4 1803.7 1237.3 1812.8 1227.4 1821.2 1259.5 1821.2 1681.4 1821.2 1702.2 1821.2 1692.2 1810.3 1701.8 1803.3 1692.2 1794.1 1702.2 1784.7 1702.2 1784.6 1692.2 1775.5 1702.2 1767.1" style="fill:#ffeebf"/><path d="M1687.5,1562.7c3.8,11.9,5.4,24.6,8.1,36.8a189,189,0,0,0,22.7,56.1l4.3,6.9c4.3-15.1,2.4-34.7-.5-49.6-3.6-18.5-12.9-36.8-28.8-47a65.5,65.5,0,0,0-5.8-3.2" style="fill:#d5e6a2"/><path d="M1658.5,1556.5h-4.8c-8.2.5-16.9,2.5-22.3,8.7-2.5,2.9-4.1,6.9-2.9,10.6s7,6.9,11.9,8.3c14.9,4.2,30.7,7.7,42.3,17.9,14,12.3,19.1,31.8,20.8,50.3.6,6.2,1.1,18.3,8.6,20.7a5.9,5.9,0,0,0,2.1.4c4.3,0,6.4-4.8,7.8-8.9q.3-.9.6-2.1l-4.3-6.9a189,189,0,0,1-22.7-56.1c-2.7-12.2-4.3-24.9-8.1-36.8a66.9,66.9,0,0,0-29-6.2" style="fill:#d5e6a2"/><path d="M1714,1693.2a8.9,8.9,0,0,0-4.2,1.5,8.4,8.4,0,0,1-3.9,1.4h-.9c-5,12.2-4.5,29.1-2.8,42.1.5,3.7,1.4,7.8,4.5,10a7.5,7.5,0,0,0,4.3,1.3,11.2,11.2,0,0,0,8.1-3.9c3-3.6,4-8.4,4.4-13a169.9,169.9,0,0,0,.4-21.4c-.1-3.5-.2-7.1-1.3-10.3s-3.5-6.4-6.9-7.4l-1.7-.3" style="fill:#d5e6a2"/><path d="M1207.1,1716.8a9.9,9.9,0,0,0-3.3,1.1c-7.1,3.5-9.6,12.1-10.8,19.9-2.4,15.1-2.8,31.2,3.5,45.2,5.5,12.4,20.7,25.2,35.5,25.6-8-13.7-13.3-29.2-17.3-44.7a247.5,247.5,0,0,1-7.6-47.1" style="fill:#d5e6a2"/><path d="M1207.9,1716.8h-.8a247.5,247.5,0,0,0,7.6,47.1c4,15.5,9.3,31,17.3,44.7h.7a22.9,22.9,0,0,0,14-4.5c4.3-3.2,6.9-9.3,4.4-14s-9-6.2-14.1-8.6c-9.3-4.6-14.9-14.5-17.4-24.6s-2.6-20.6-4.3-30.8c-.5-3.5-1.6-7.4-4.8-8.8a7.5,7.5,0,0,0-2.6-.5" style="fill:#d5e6a2"/><path d="M1394.2,1682.4a90.2,90.2,0,0,0-26.5-64h-22.2a63.7,63.7,0,0,0-63.7,63.7v.8a63.7,63.7,0,0,0,63.7,63.7h22A90.2,90.2,0,0,0,1394.2,1682.4Z" style="fill:#231f20"/><path d="M1635,1682.9v-.8a63.7,63.7,0,0,0-63.7-63.7h-84.1a120.8,120.8,0,0,0,8.2,128.2h75.9A63.7,63.7,0,0,0,1635,1682.9Z" style="fill:#231f20"/></g><path d="M1075.4,1911.3V1452.7h759.8v458.6Zm130-400.5a4.5,4.5,0,0,0-4.5,4.5v328.1a4.5,4.5,0,0,0,4.5,4.5h506a4.5,4.5,0,0,0,4.5-4.5V1515.3a4.5,4.5,0,0,0-4.5-4.5Z" style="fill:#a0a7ab"/><path d="M1830.7,1457.2v449.6H1079.9V1457.2h750.8m-625.3,395.2h506a9,9,0,0,0,9-9V1515.3a9,9,0,0,0-9-9h-506a9,9,0,0,0-9,9v328.1a9,9,0,0,0,9,9m634.3-404.2H1070.9v467.6h768.8V1448.2Zm-634.3,395.2V1515.3h506v328.1Z" style="fill:#12232e"/><rect x="1923.4" y="886.8" width="275.3" height="132.3" style="fill:#a0a7ab;stroke:#12232e;stroke-linecap:round;stroke-linejoin:round;stroke-width:9px"/><circle cx="519.4" cy="1610" r="485.4" style="fill:#fdf5ab;stroke:#12232e;stroke-linecap:round;stroke-linejoin:round;stroke-width:9px"/><circle cx="519.4" cy="1610" r="409.8" style="fill:#fbeb57;stroke:#12232e;stroke-linecap:round;stroke-linejoin:round;stroke-width:9px"/><circle cx="2388" cy="1610" r="485.4" style="fill:#fdf5ab;stroke:#12232e;stroke-linecap:round;stroke-linejoin:round;stroke-width:9px"/><circle cx="2388" cy="1610" r="409.8" style="fill:#fbeb57;stroke:#12232e;stroke-linecap:round;stroke-linejoin:round;stroke-width:9px"/><rect x="470.2" y="411.2" width="1970.2" height="443.39" style="fill:none;stroke:#12232e;stroke-linecap:round;stroke-linejoin:round;stroke-width:9px"/><rect id="_rec_" data-name="&lt;rec&gt;" x="708" y="886.8" width="275.3" height="132.3" style="fill:#a0a7ab;stroke:#12232e;stroke-linecap:round;stroke-linejoin:round;stroke-width:9px"/><rect x="470.2" y="411.2" width="110.8" height="443.39" style="fill:#a0a7ab;stroke:#12232e;stroke-linecap:round;stroke-linejoin:round;stroke-width:9px"/><rect x="2329.6" y="411.2" width="110.8" height="443.39" style="fill:#a0a7ab;stroke:#12232e;stroke-linecap:round;stroke-linejoin:round;stroke-width:9px"/><rect x="955" width="1000.6" height="141.24" style="fill:#fbeb57;stroke:#12232e;stroke-linecap:round;stroke-linejoin:round;stroke-width:10px"/><path d="M812.5,141.2V377h51.8V259.1c0-117.9,90.7-117.9,90.7-117.9V0C807.9,0,812.5,141.2,812.5,141.2Z" style="fill:#606c73;stroke:#12232e;stroke-linecap:round;stroke-linejoin:round;stroke-width:9px"/><path d="M2098.2,141.2V377h-51.9V259.1c0-117.9-90.6-117.9-90.6-117.9V0C2102.8,0,2098.2,141.2,2098.2,141.2Z" style="fill:#606c73;stroke:#12232e;stroke-linecap:round;stroke-linejoin:round;stroke-width:9px"/></g><g id="buttons-group"><rect id="previous-button-background" x="1072.8" y="1915.8" width="192.4" height="167.98" style="fill:#fae83c;stroke:#12232e;stroke-linecap:round;stroke-linejoin:round;stroke-width:9px"/><g id="previous-group"><circle id="previous-bg" cx="1169" cy="1999.8" r="45.5" transform="translate(-1045.9 2678.1) rotate(-76.7)" style="fill:#1a2238"/><path id="previous-path2" d="M1170.9,2003.1l14.8,8.5a3.8,3.8,0,0,0,5.7-3.3v-17a3.8,3.8,0,0,0-5.7-3.3l-14.8,8.5A3.8,3.8,0,0,0,1170.9,2003.1Z" style="fill:#fff"/><path id="previous-path1" d="M1148.5,2003.1l14.8,8.5a3.8,3.8,0,0,0,5.7-3.3v-17a3.8,3.8,0,0,0-5.7-3.3l-14.8,8.5A3.8,3.8,0,0,0,1148.5,2003.1Z" style="fill:#fff"/></g><rect id="stop-button-background" x="1264.2" y="1915.8" width="192.4" height="167.98" style="fill:#fae83c;stroke:#12232e;stroke-linecap:round;stroke-linejoin:round;stroke-width:9px"/><g id="stop-group"><circle id="stop-bg" cx="1360.3" cy="1999.8" r="45.5" transform="translate(-898.5 2864.3) rotate(-76.7)" style="fill:#1a2238"/><rect id="stop-path1" x="1343.3" y="1982.7" width="34.1" height="34.1" style="fill:#fff"/></g><rect id="play-button-background" x="1456.7" y="1915.8" width="192.4" height="167.98" style="fill:#fae83c;stroke:#12232e;stroke-linecap:round;stroke-linejoin:round;stroke-width:9px"/><g id="pause-group"><circle id="pause-bg" cx="1552.9" cy="1999.8" r="45.5" style="fill:#1a2238"/><path id="pause-path2" d="M1543.3,2020.2h0a5.9,5.9,0,0,1-5.9-6v-28.8a5.9,5.9,0,0,1,5.9-6h0a6,6,0,0,1,6,6v28.8A6,6,0,0,1,1543.3,2020.2Z" style="fill:#fff"/><path id="pause-path1" d="M1562.5,2020.2h0a6,6,0,0,1-6-6v-28.8a6,6,0,0,1,6-6h0a5.9,5.9,0,0,1,5.9,6v28.8A5.9,5.9,0,0,1,1562.5,2020.2Z" style="fill:#fff"/></g><g id="play-group"><circle id="play-bg" cx="1552.9" cy="1999.8" r="45.5" style="fill:#1a2238"/><path id="play-path1" d="M1571.2,1994.3l-24.4-14a6.3,6.3,0,0,0-9.4,5.4v28.1a6.3,6.3,0,0,0,9.4,5.5l24.4-14.1A6.3,6.3,0,0,0,1571.2,1994.3Z" style="fill:#fff"/></g><rect id="next-button-background" x="1649.4" y="1915.8" width="192.4" height="167.98" style="fill:#fae83c;stroke:#12232e;stroke-linecap:round;stroke-linejoin:round;stroke-width:9px"/><g id="next-group"><circle id="next-bg" cx="1745.6" cy="2003.2" r="45.5" style="fill:#1a2238"/><path id="next-path2" d="M1743.7,1999.9l-14.7-8.5a3.8,3.8,0,0,0-5.8,3.3v17a3.9,3.9,0,0,0,5.8,3.3l14.7-8.5A3.8,3.8,0,0,0,1743.7,1999.9Z" style="fill:#fff"/><path id="next-path1" d="M1766.1,1999.9l-14.8-8.5a3.8,3.8,0,0,0-5.7,3.3v17a3.8,3.8,0,0,0,5.7,3.3l14.8-8.5A3.8,3.8,0,0,0,1766.1,1999.9Z" style="fill:#fff"/></g></g><rect id="title-place" x="683.9" y="437.3" width="1542.9" height="391.25" style="fill:none;stroke:#12232e;stroke-linecap:round;stroke-linejoin:round;opacity:0.01"/><rect id="image-place" x="1070.9" y="886.8" width="768.8" height="532.56" style="fill:#a0a7ab;stroke:#12232e;stroke-linecap:round;stroke-linejoin:round;stroke-width:9px"/><circle id="right-top-circle" cx="2679.4" cy="600.7" r="143" style="fill:#fdf6b1;stroke:#12232e;stroke-linecap:round;stroke-linejoin:round;stroke-width:9px"/><circle id="right-bottom-circle" cx="2679.4" cy="934.2" r="165.4" style="fill:#fdf49e;stroke:#12232e;stroke-linecap:round;stroke-linejoin:round;stroke-width:9px"/><circle id="left-top-circle" cx="236" cy="600.7" r="143" style="fill:#fdf6b1;stroke:#12232e;stroke-linecap:round;stroke-linejoin:round;stroke-width:9px"/><circle id="left-bottom-circle" cx="236" cy="934.2" r="165.4" style="fill:#fdf49e;stroke:#12232e;stroke-linecap:round;stroke-linejoin:round;stroke-width:9px"/><circle id="right-circle" cx="2388" cy="1610" r="110" transform="translate(-439 2160.1) rotate(-45)" style="fill:#fdf5ab;stroke:#12232e;stroke-linecap:round;stroke-linejoin:round;stroke-width:9px"/><circle id="left-circle" cx="519.4" cy="1610" r="110" transform="translate(-986.3 838.8) rotate(-45)" style="fill:#fdf5ab;stroke:#12232e;stroke-linecap:round;stroke-linejoin:round;stroke-width:9px"/><path id="tape-path-2" d="M1334.1,1726.1a45,45,0,1,0-45-45A45.1,45.1,0,0,0,1334.1,1726.1Zm-4.4-79.7v8.9h8.7v-8.9a35.4,35.4,0,0,1,23.9,14.1l-7.4,4.1,4.2,7.6,7.4-4.1a35,35,0,0,1,2.5,13,33,33,0,0,1-1.5,9.9l-7.2-3.8-4,7.6,7.8,4.1a34.7,34.7,0,0,1-25.7,16.8v-9.1h-8.7v9.1a35.1,35.1,0,0,1-24.5-15l8.1-4.5-4.3-7.5-7.7,4.3a33.5,33.5,0,0,1-2.1-11.9,35.4,35.4,0,0,1,2.8-13.8l8,4.3,4-7.7-7.7-4A35,35,0,0,1,1329.7,1646.4Z" style="fill:#fff"/><path id="tape-path-1" d="M1552.6,1726.1a45,45,0,1,0-45-45A45.1,45.1,0,0,0,1552.6,1726.1Zm-4.4-79.7v8.9h8.7v-8.9a35.4,35.4,0,0,1,23.9,14.1l-7.4,4.1,4.2,7.6,7.3-4.1a33.2,33.2,0,0,1,2.6,13,36.5,36.5,0,0,1-1.5,9.9l-7.2-3.8-4,7.6,7.7,4.1a34.4,34.4,0,0,1-25.6,16.8v-9.1h-8.7v9.1a35.1,35.1,0,0,1-24.5-15l8-4.5-4.2-7.5-7.7,4.3a33.5,33.5,0,0,1-2.2-11.9,35.5,35.5,0,0,1,2.9-13.8l8,4.3,4-7.7-7.7-4A35,35,0,0,1,1548.2,1646.4Z" style="fill:#fff"/><rect id="next-mask" x="1652.1" y="1915.8" width="187.6" height="167.98" style="fill:#fff;opacity:0.01"/><rect id="play-mask" x="1456.7" y="1915.8" width="190" height="167.98" style="fill:#fff;opacity:0.01"/><rect id="stop-mask" x="1264.2" y="1915.8" width="188.9" height="167.98" style="fill:#fff;opacity:0.01"/><rect id="previous-mask" x="1072.8" y="1915.8" width="187.5" height="167.98" style="fill:#fff;opacity:0.01"/></svg>